Coordinates
version=1
nRows=16
nColumns=36
inDegrees=yes

Units are S.I. units (second, meters, Newtons, ...)
If the header above contains a line with 'inDegrees', this indicates whether rotational values are in degrees (yes) or radians (no).

endheader
time	pelvis_tilt	pelvis_list	pelvis_rotation	pelvis_tx	pelvis_ty	pelvis_tz	hip_flexion_r	hip_adduction_r	hip_rotation_r	knee_angle_r	knee_angle_r_beta	ankle_angle_r	subtalar_angle_r	mtp_angle_r	hip_flexion_l	hip_adduction_l	hip_rotation_l	knee_angle_l	knee_angle_l_beta	ankle_angle_l	subtalar_angle_l	mtp_angle_l	lumbar_extension	lumbar_bending	lumbar_rotation	arm_flex_r	arm_add_r	arm_rot_r	elbow_flex_r	pro_sup_r	arm_flex_l	arm_add_l	arm_rot_l	elbow_flex_l	pro_sup_l
      4.05000000	    -15.06312509	     -2.55687909	     -2.89392554	      0.43481862	      0.90425624	     -0.16312725	     26.19342044	     -0.96547934	      8.39237315	      6.31101329	      0.11014796	     11.83266345	    -14.38943473	     -7.49999987	     18.67655138	      2.58987024	     -7.46453091	      6.98672538	      0.12194136	      5.63927871	    -10.57277811	     -7.49999987	     -1.14965128	      3.17157347	      7.04293320	     48.89139085	     14.01684036	     68.54089183	    113.21333822	     85.43724977	     37.92563988	     13.46498873	     67.55712354	    120.94285483	     82.94420934
      4.06666670	    -14.80131029	     -2.49402460	     -3.06948735	      0.43330160	      0.90625899	     -0.16342904	     25.86344712	     -0.98826445	      8.60756184	      6.11289082	      0.10669007	     11.61410822	    -14.53740622	     -7.49999987	     18.26448458	      2.66094412	     -7.63967635	      6.63763435	      0.11584857	      5.59018440	    -10.43551156	     -7.49999987	     -1.35804214	      2.99220712	      7.18199183	     49.09402162	     13.97209910	     68.59527843	    113.25121003	     87.21803267	     38.25117825	     13.48992901	     67.78158047	    120.71607384	     84.03576800
      4.08333330	    -14.78172795	     -2.41569635	     -3.20790921	      0.43396181	      0.90656903	     -0.16318568	     25.82340846	     -1.02916256	      8.56029265	      6.00624422	      0.10482874	     11.66025059	    -14.14814395	     -7.49999987	     18.15006643	      2.72732663	     -7.80716343	      6.33428411	      0.11055411	      5.43840388	    -10.28124330	     -7.49999987	     -1.26902484	      2.82339860	      7.27236334	     49.09388677	     13.89147997	     68.83453268	    113.37193266	     85.44640242	     38.10999654	     13.40637127	     67.98290395	    121.13027291	     82.36592877
      4.10000000	    -14.48681711	     -2.37048649	     -3.36041857	      0.43319626	      0.90880079	     -0.16319191	     25.44689261	     -1.05085913	      8.74799761	      5.82886791	      0.10173294	     11.22060442	    -14.49207011	     -7.49999987	     17.72277503	      2.76319213	     -7.90428801	      6.02392660	      0.10513735	      5.12361316	    -10.41119875	     -7.49999987	     -1.54813515	      2.65030570	      7.38933803	     48.93529648	     13.86460963	     68.82530269	    113.21048137	     87.78307990	     38.12700354	     13.33415874	     67.99631909	    120.99426775	     83.93745132
      4.11666670	    -14.76387790	     -2.34694505	     -3.46181209	      0.43324676	      0.90570056	     -0.16358461	     25.71922415	     -1.04239625	      8.46777066	      5.85825242	      0.10224579	     11.50775848	    -13.64388932	     -7.49999987	     17.98063593	      2.76617427	     -7.94492565	      5.94568595	      0.10377180	      5.27095459	    -10.07364061	     -7.49999987	     -0.82863682	      2.56080430	      7.24456004	     48.63397799	     13.85985578	     68.77014172	    112.84873532	     86.18463929	     37.80335675	     13.14227281	     67.96211610	    120.75061599	     82.45758571
      4.13333330	    -14.20212453	     -2.32852019	     -3.68593557	      0.43279371	      0.90647088	     -0.16337214	     25.17733127	     -0.96932738	      8.96487207	      5.82506054	      0.10166649	     10.85796660	    -14.81843619	     -7.49999987	     17.29305774	      2.77757658	     -8.19998184	      5.71704078	      0.09978119	      5.00560339	    -10.33771890	     -7.49999987	     -1.55724320	      2.36056400	      7.45363426	     49.05808075	     13.91911875	     68.83337481	    113.03752619	     86.26007397	     38.05248881	     13.15111089	     68.20472329	    121.07785978	     82.37941308
      4.15000000	    -14.14287922	     -2.33038473	     -3.83890512	      0.43270038	      0.90654187	     -0.16349690	     25.16037747	     -0.90806213	      8.86359821	      5.87435011	      0.10252675	     10.80713435	    -14.60863833	     -7.49999987	     17.11003643	      2.76409521	     -8.34732978	      5.45989921	      0.09529322	      4.90963898	    -10.24216960	     -7.49999987	     -1.41797278	      2.23060463	      7.42046789	     49.08600435	     13.92314726	     68.80247697	    112.87201416	     85.47944698	     37.97316354	     13.04144365	     68.28989918	    121.28494568	     81.62624635
      4.16666670	    -13.91415443	     -2.32917901	     -4.01967268	      0.43238454	      0.90677152	     -0.16335340	     24.98138319	     -0.85328041	      9.13285697	      5.82321273	      0.10163424	     10.42073935	    -15.22682246	     -7.49999987	     16.78639243	      2.74784721	     -8.66850648	      5.24477225	      0.09153854	      4.97097192	     -9.88369746	     -7.49999987	     -1.54503822	      2.07794970	      7.50605721	     49.15896608	     13.98051853	     68.53273105	    112.60458743	     87.38064199	     38.13884549	     13.08429811	     68.30253215	    121.44103506	     82.90674620
      4.18333330	    -13.69170210	     -2.38579451	     -4.08523435	      0.43278249	      0.90522457	     -0.16351014	     24.76900795	     -0.80674929	      8.98539929	      5.83948319	      0.10191821	     10.52321367	    -14.88676122	     -7.49999987	     16.44104291	      2.70730567	     -8.65887485	      5.02530611	      0.08770814	      4.93800057	     -9.89315602	     -7.49999987	     -1.61273293	      1.97204093	      7.59626703	     49.30655965	     14.06045179	     68.47118505	    112.53051705	     86.55082262	     38.23395263	     13.08401443	     68.46273590	    121.51992073	     82.14790565
      4.20000000	    -13.72011526	     -2.39441214	     -4.19363627	      0.42845837	      0.90462552	     -0.16636151	     24.96908065	     -0.84233968	      8.96593123	      5.93342443	      0.10355779	     10.51554196	    -14.92122098	     -7.49999987	     16.47059188	      2.73644451	     -8.65118533	      4.90881833	      0.08567504	      5.07554609	     -9.86544972	     -7.49999987	     -1.51504381	      1.96988218	      7.61877006	     49.62056304	     14.02085558	     68.32450915	    112.48042769	     86.61639817	     38.41944648	     13.17864647	     68.32229490	    121.41596678	     82.20088245
      4.21666670	    -13.72091830	     -2.37716312	     -4.19220664	      0.42817750	      0.90276049	     -0.16675890	     25.15540045	     -0.91734636	      8.96923790	      6.01014878	      0.10489688	     10.56134684	    -15.01755022	     -7.49999987	     16.55169015	      2.81909484	     -8.74285104	      4.92450553	      0.08594884	      5.25329622	     -9.73003663	     -7.49999987	     -1.44799136	      1.89489656	      7.68486543	     49.97669403	     13.91246104	     68.39976132	    112.52884461	     85.41569306	     38.79641990	     13.38868020	     68.25090392	    121.06799570	     81.06643963
      4.23333330	    -13.63728944	     -2.44917968	     -4.19190036	      0.43263338	      0.90158971	     -0.16377233	     25.13585770	     -0.89696459	      8.86986862	      6.03637206	      0.10535457	     10.61341456	    -15.09916657	     -7.49999987	     16.39985651	      2.74096419	     -8.70582258	      4.95804474	      0.08653421	      5.28724489	     -9.72756948	     -7.49999987	     -1.25926832	      1.81554569	      7.81743787	     49.93292047	     14.08401896	     68.45443003	    112.52739636	     85.44008755	     38.70185138	     13.41221634	     68.30090535	    121.06604296	     81.08722504
      4.25000000	    -13.67132345	     -2.49887251	     -4.21830535	      0.42810798	      0.90355475	     -0.16710580	     25.33487216	     -0.93422616	      8.63942070	      6.12054815	      0.10682372	     10.65720912	    -15.28521219	     -7.49999987	     16.47096260	      2.75876444	     -8.69363998	      4.92400051	      0.08594002	      5.41742464	     -9.72879491	     -7.49999987	     -1.30306511	      1.90014635	      7.97385761	     49.80512092	     14.19374526	     68.55599674	    112.36323279	     85.52738605	     38.48765919	     13.40075223	     68.45358986	    120.96289592	     81.15572835
      4.26666670	    -14.07599568	     -2.51241179	     -4.25852475	      0.42839460	      0.89928192	     -0.16712660	     26.13951205	     -0.90831237	      8.46632506	      6.57846027	      0.11481579	     11.01775950	    -15.13614597	     -7.49999987	     17.05037304	      2.72875478	     -8.79067059	      5.18916171	      0.09056796	      5.67828667	     -9.73963435	     -7.49999987	     -0.71191483	      1.90827427	      7.96540662	     49.63084282	     14.60873847	     68.62596630	    111.99038638	     83.60840224	     38.12745277	     13.40096321	     68.51198599	    121.04238583	     79.37982217
      4.28333330	    -13.95494205	     -2.50559412	     -4.37008330	      0.43260269	      0.90305004	     -0.16949105	     26.24778944	     -0.94493717	      8.54461768	      6.99211376	      0.12203541	     10.55305857	    -16.05992201	     -7.49999987	     16.79204787	      2.78331105	     -9.12790434	      5.07040565	      0.08849527	      5.81760040	     -9.17633148	     -7.49999987	     -0.75182053	      1.88171742	      7.88996309	     49.50739588	     14.94797722	     68.84082963	    111.84074608	     87.86033364	     37.81836359	     13.23162923	     68.32723411	    121.05528677	     82.90775660
      4.30000000	    -13.95988032	     -2.49822983	     -4.47733789	      0.43216407	      0.90110064	     -0.16962500	     26.53333480	     -1.01726545	      8.30382454	      7.50416663	      0.13097242	     10.94069652	    -15.85718116	     -7.49999987	     16.68269922	      2.87227966	     -9.20446112	      4.97090151	      0.08675860	      5.92289045	     -9.34253358	     -7.49999987	     -0.54357884	      1.83220652	      8.17092203	     49.23772456	     14.90703524	     69.14097837	    111.95227244	     87.56026985	     37.31117321	     13.21845992	     68.24729495	    121.04479790	     82.65823262
